# xmcd
#
# Track frame offsets:
#	150
#	15125
#	24353
#	34612
#	51145
#	66142
#	77742
#	91579
#	107466
#	123829
#	139231
#	155247
#	173254
#	190886
#	203072
#	216776
#	231272
#	244456
#	262724
#	273952
#	293685
#	304744
#
# Disc length: 4317 seconds
#
# Revision: 0
# Processed by: cddbd v1.5.2PL0 Copyright (c) Steve Scherf et al.
# Submitted via: dBpowerAMP V4.0
#
DISCID=1910db16
DTITLE=Various Artist - Word from the Range
DYEAR=1900
DGENRE=country
TTITLE0=Word from the range - The Simpson Brothers
TTITLE1=Calgary Roundup - Wilf Carter
TTITLE2=Cowboys and Rodeos - Quartette
TTITLE3=Cowboy Pride - Ian Tyson
TTITLE4=The Last of the Rodeo Riders - Dick Damron
TTITLE5=Curly Bob - Nathan Tinkham
TTITLE6=Cool Watyer - The Rhythm Pals
TTITLE7=Cowgirl's Lullaby - Cindy Church
TTITLE8=Half a mile Of Hell - Ian Tyson
TTITLE9=Dance withthis old Cowboy - Gary Fjellgaard
TTITLE10=Like a Rodeo - Tom Phillips
TTITLE11=High Rider - Diamond Joe White
TTITLE12=Code of the West - Colleen Peterson
TTITLE13=My Heart Can't Take Another Rodeo - Tim Williams
TTITLE14=Wind in the Wire - Great Western Orchestra
TTITLE15=Red River Valley - The Simpsons brothers and Cindy Church
TTITLE16=The Fate of Old Strawberry Roan - Wilf Carter
TTITLE17=Drifting Cowboy - Gary Fjellgaard
TTITLE18=Tumbling Tumbleweeds - The Rhythm Pals
TTITLE19=Neon Cowboy - Quartette
TTITLE20=The Wilf Carter Song - Dick Damron
TTITLE21=Summer Wages - Ian Tyson
EXTD=
EXTT0=
EXTT1=
EXTT2=
EXTT3=
EXTT4=
EXTT5=
EXTT6=
EXTT7=
EXTT8=
EXTT9=
EXTT10=
EXTT11=
EXTT12=
EXTT13=
EXTT14=
EXTT15=
EXTT16=
EXTT17=
EXTT18=
EXTT19=
EXTT20=
EXTT21=
PLAYORDER=
